<svg width="44" height="64" viewBox="0 0 44 64" fill="none" xmlns="http://www.w3.org/2000/svg">
<g id="icon-figma" clip-path="url(#clip0_15_651)">
<path id="Vector" d="M22.2856 32.0002C22.2856 29.1712 23.4095 26.4581 25.4098 24.4577C27.4102 22.4573 30.1233 21.3335 32.9523 21.3335C35.7813 21.3335 38.4944 22.4573 40.4948 24.4577C42.4952 26.4581 43.619 29.1712 43.619 32.0002C43.619 34.8291 42.4952 37.5422 40.4948 39.5426C38.4944 41.543 35.7813 42.6668 32.9523 42.6668C30.1233 42.6668 27.4102 41.543 25.4098 39.5426C23.4095 37.5422 22.2856 34.8291 22.2856 32.0002Z" fill="#1ABCFE"/>
<path id="Vector_2" d="M0.952148 53.3332C0.952148 50.5042 2.07595 47.7911 4.07634 45.7907C6.07673 43.7903 8.78984 42.6665 11.6188 42.6665H22.2855V53.3332C22.2855 56.1621 21.1617 58.8753 19.1613 60.8756C17.1609 62.876 14.4478 63.9998 11.6188 63.9998C8.78984 63.9998 6.07673 62.876 4.07634 60.8756C2.07595 58.8753 0.952148 56.1621 0.952148 53.3332Z" fill="#0ACF83"/>
<path id="Vector_3" d="M22.2856 0V21.3333H32.9523C35.7813 21.3333 38.4944 20.2095 40.4948 18.2091C42.4952 16.2087 43.619 13.4956 43.619 10.6667C43.619 7.83769 42.4952 5.12458 40.4948 3.12419C38.4944 1.12381 35.7813 0 32.9523 0L22.2856 0Z" fill="#FF7262"/>
<path id="Vector_4" d="M0.952148 10.6667C0.952148 13.4956 2.07595 16.2087 4.07634 18.2091C6.07673 20.2095 8.78984 21.3333 11.6188 21.3333H22.2855V0H11.6188C8.78984 0 6.07673 1.12381 4.07634 3.12419C2.07595 5.12458 0.952148 7.83769 0.952148 10.6667Z" fill="#F24E1E"/>
<path id="Vector_5" d="M0.952148 32.0002C0.952148 34.8291 2.07595 37.5422 4.07634 39.5426C6.07673 41.543 8.78984 42.6668 11.6188 42.6668H22.2855V21.3335H11.6188C8.78984 21.3335 6.07673 22.4573 4.07634 24.4577C2.07595 26.4581 0.952148 29.1712 0.952148 32.0002Z" fill="#A259FF"/>
</g>
<defs>
<clipPath id="clip0_15_651">
<rect width="42.6667" height="64" fill="white" transform="translate(0.952148)"/>
</clipPath>
</defs>
</svg>
