<svg width="65" height="64" viewBox="0 0 65 64" fill="none" xmlns="http://www.w3.org/2000/svg">
<g id="icon-sass">
<path id="Vector" d="M53.2991 34.6079C51.2484 34.6186 49.4724 35.1106 47.9844 35.8452C47.4404 34.7586 46.8884 33.8026 46.7964 33.0919C46.6884 32.2626 46.5631 31.7666 46.6937 30.7786C46.8244 29.7906 47.3964 28.3906 47.3884 28.2852C47.3804 28.1799 47.2604 27.6772 46.0777 27.6679C44.8951 27.6599 43.8831 27.8959 43.7644 28.2079C43.6457 28.5199 43.4177 29.2226 43.2764 29.9559C43.0697 31.0279 40.9151 34.8532 39.6924 36.8532C39.2924 36.0719 38.9524 35.3839 38.8817 34.8399C38.7737 34.0106 38.6484 33.5146 38.7791 32.5266C38.9097 31.5386 39.4817 30.1386 39.4737 30.0332C39.4657 29.9279 39.3457 29.4252 38.1631 29.4159C36.9804 29.4079 35.9684 29.6439 35.8497 29.9559C35.7311 30.2679 35.6031 30.9972 35.3617 31.7039C35.1191 32.4092 32.2564 38.7892 31.5057 40.4439C31.1231 41.2866 30.7911 41.9639 30.5564 42.4252L30.5551 42.4226C30.5551 42.4226 30.5404 42.4532 30.5164 42.5052C30.3151 42.8986 30.1964 43.1159 30.1964 43.1159C30.1964 43.1159 30.1977 43.1186 30.2004 43.1239C30.0404 43.4132 29.8697 43.6812 29.7857 43.6812C29.7271 43.6812 29.6084 42.9119 29.8111 41.8559C30.2377 39.6426 31.2604 36.1919 31.2511 36.0719C31.2457 36.0106 31.4417 35.4092 30.5831 35.0946C29.7484 34.7892 29.4511 35.2986 29.3751 35.2999C29.3017 35.3012 29.2471 35.4799 29.2471 35.4799C29.2471 35.4799 30.1764 31.5986 27.4737 31.5986C25.7831 31.5986 23.4417 33.4479 22.2884 35.1239C21.5604 35.5212 20.0017 36.3719 18.3497 37.2799C17.7151 37.6292 17.0671 37.9852 16.4524 38.3239C16.4111 38.2772 16.3684 38.2319 16.3257 38.1852C13.0471 34.6879 6.98841 32.2146 7.24441 27.5119C7.33775 25.8026 7.93241 21.3012 18.8884 15.8426C27.8631 11.3706 35.0484 12.6012 36.2897 15.3279C38.0631 19.2252 32.4497 26.4666 23.1297 27.5119C19.5791 27.9106 17.7084 26.5332 17.2431 26.0212C16.7537 25.4812 16.6804 25.4572 16.4977 25.5586C16.2004 25.7239 16.3884 26.1999 16.4977 26.4839C16.7764 27.2079 17.9177 28.4919 19.8644 29.1319C21.5777 29.6946 25.7471 30.0026 30.7884 28.0519C36.4364 25.8679 40.8457 19.7906 39.5497 14.7119C38.2324 9.54658 29.6671 7.84791 21.5604 10.7279C16.7297 12.4426 11.5071 15.1332 7.75108 18.6452C3.28574 22.8212 2.57375 26.4572 2.86708 27.9759C3.90975 33.3732 11.3484 36.8879 14.3271 39.4919C14.1804 39.5732 14.0417 39.6492 13.9164 39.7186C12.4231 40.4572 6.75241 43.4252 5.33375 46.5599C3.72441 50.1159 5.58975 52.6679 6.82441 53.0119C10.6497 54.0759 14.5751 52.1612 16.6857 49.0146C18.7951 45.8692 18.5377 41.7719 17.5697 39.9026C17.5577 39.8799 17.5444 39.8572 17.5324 39.8332C17.9177 39.6052 18.3111 39.3732 18.7004 39.1439C19.4604 38.6972 20.2071 38.2812 20.8537 37.9292C20.4911 38.9212 20.2257 40.1119 20.0884 41.8306C19.9257 43.8492 20.7537 46.4586 21.8364 47.4852C22.3137 47.9372 22.8871 47.9479 23.2497 47.9479C24.5097 47.9479 25.0844 46.8999 25.7177 45.6599C26.4937 44.1399 27.1831 42.3692 27.1831 42.3692C27.1831 42.3692 26.3191 47.1506 28.6737 47.1506C29.5324 47.1506 30.3951 46.0372 30.7804 45.4706C30.7817 45.4772 30.7817 45.4799 30.7817 45.4799C30.7817 45.4799 30.8044 45.4426 30.8484 45.3692C30.9377 45.2332 30.9884 45.1466 30.9884 45.1466C30.9884 45.1466 30.9897 45.1372 30.9924 45.1212C31.3377 44.5226 32.1031 43.1572 33.2497 40.9052C34.7324 37.9959 36.1537 34.3506 36.1537 34.3506C36.1537 34.3506 36.2857 35.2412 36.7191 36.7159C36.9737 37.5826 37.5151 38.5412 37.9431 39.4612C37.5991 39.9386 37.3884 40.2119 37.3884 40.2119C37.3884 40.2119 37.3897 40.2172 37.3937 40.2266C37.1191 40.5919 36.8111 40.9852 36.4884 41.3692C35.3177 42.7626 33.9244 44.3546 33.7377 44.8132C33.5177 45.3546 33.5697 45.7519 33.9951 46.0732C34.3057 46.3066 34.8577 46.3439 35.4351 46.3052C36.4871 46.2346 37.2257 45.9732 37.5911 45.8146C38.1604 45.6132 38.8231 45.2972 39.4444 44.8399C40.5924 43.9959 41.2844 42.7892 41.2177 41.1892C41.1804 40.3079 40.9004 39.4346 40.5444 38.6106C40.6484 38.4612 40.7524 38.3092 40.8577 38.1572C42.6671 35.5119 44.0711 32.6052 44.0711 32.6052C44.0711 32.6052 44.2031 33.4959 44.6364 34.9706C44.8551 35.7159 45.2884 36.5306 45.6777 37.3279C43.9764 38.7106 42.9217 40.3172 42.5551 41.3706C41.8777 43.3199 42.4084 44.2026 43.4031 44.4039C43.8537 44.4946 44.4911 44.2879 44.9697 44.0852C45.5657 43.8879 46.2817 43.5586 46.9511 43.0666C48.0991 42.2226 49.2031 41.0412 49.1364 39.4426C49.1057 38.7146 48.9084 37.9919 48.6404 37.2986C50.0831 36.6972 51.9497 36.3639 54.3284 36.6412C59.4311 37.2372 60.4311 40.4226 60.2404 41.7559C60.0484 43.0892 58.9791 43.8226 58.6204 44.0439C58.2631 44.2652 58.1537 44.3426 58.1831 44.5066C58.2271 44.7452 58.3924 44.7372 58.6977 44.6852C59.1177 44.6146 61.3764 43.6012 61.4737 41.1399C61.5951 38.0119 58.6017 34.5799 53.2991 34.6079ZM13.9697 47.8666C12.2791 49.7106 9.91908 50.4066 8.90575 49.8199C7.81241 49.1866 8.24574 46.4719 10.3191 44.5146C11.5831 43.3226 13.2151 42.2239 14.2977 41.5479C14.5444 41.3999 14.9057 41.1826 15.3457 40.9186C15.4191 40.8772 15.4604 40.8546 15.4604 40.8546L15.4591 40.8519C15.5444 40.8012 15.6311 40.7492 15.7204 40.6946C16.4764 43.4799 15.7444 45.9319 13.9697 47.8666ZM26.2831 39.4972C25.6951 40.9319 24.4631 44.6039 23.7124 44.4066C23.0684 44.2372 22.6764 41.4466 23.5844 38.6999C24.0404 37.3172 25.0164 35.6652 25.5897 35.0239C26.5124 33.9919 27.5284 33.6546 27.7751 34.0732C28.0884 34.6066 26.6524 38.5972 26.2831 39.4972ZM36.4551 44.3506C36.2057 44.4812 35.9764 44.5626 35.8711 44.4999C35.7924 44.4532 35.9737 44.2812 35.9737 44.2812C35.9737 44.2812 37.2457 42.9119 37.7471 42.2892C38.0391 41.9266 38.3764 41.4959 38.7444 41.0159C38.7471 41.0639 38.7484 41.1119 38.7484 41.1586C38.7457 42.7986 37.1617 43.9052 36.4551 44.3506ZM44.2911 42.5639C44.1044 42.4319 44.1364 42.0039 44.7484 40.6692C44.9884 40.1452 45.5377 39.2639 46.4897 38.4212C46.6004 38.7679 46.6671 39.0999 46.6657 39.4092C46.6537 41.4732 45.1817 42.2439 44.2911 42.5639Z" fill="#F06292"/>
</g>
</svg>
