<svg width="48" height="48" viewBox="0 0 48 48" fill="none" xmlns="http://www.w3.org/2000/svg">
<g id="Dribble">
<g id="Group">
<path id="Vector" fill-rule="evenodd" clip-rule="evenodd" d="M30.4153 26.8598C30.0659 26.6851 28.3532 25.8434 28.0344 25.7262C27.7155 25.6101 27.4834 25.5527 27.2501 25.902C27.018 26.249 26.351 27.0345 26.1482 27.2666C25.9442 27.4999 25.7414 27.528 25.3932 27.3545C25.0451 27.1787 23.922 26.8117 22.5915 25.6254C21.5563 24.7016 20.8565 23.561 20.6537 23.2117C20.4509 22.8635 20.6314 22.6748 20.8061 22.5013C20.9632 22.3453 21.1543 22.0945 21.3289 21.8917C21.5036 21.6877 21.561 21.5423 21.6771 21.309C21.7943 21.0769 21.7357 20.8741 21.6478 20.6995C21.561 20.5248 20.8647 18.8097 20.574 18.1122C20.2915 17.4335 20.0042 17.5261 19.7909 17.5144C19.5869 17.505 19.3548 17.5026 19.1227 17.5026C18.8906 17.5026 18.5131 17.5894 18.1942 17.9387C17.8742 18.2869 16.9751 19.1298 16.9751 20.8448C16.9751 22.5587 18.2224 24.2151 18.397 24.4484C18.5717 24.6805 20.853 28.1997 24.3475 29.7084C25.1799 30.0672 25.8281 30.2817 26.3334 30.4411C27.1681 30.7072 27.9277 30.6697 28.5279 30.5794C29.1961 30.4798 30.5888 29.7366 30.8795 28.923C31.1691 28.1094 31.1691 27.4119 31.0823 27.2666C30.9956 27.1212 30.7634 27.0345 30.4141 26.8598H30.4153ZM24.0592 35.5382H24.0545C21.9789 35.5386 19.9414 34.9806 18.1556 33.9228L17.7335 33.6719L13.3469 34.8231L14.518 30.5466L14.2425 30.1082C13.0821 28.2611 12.468 26.1233 12.4712 23.942C12.4735 17.5531 17.6714 12.3552 24.0639 12.3552C27.1587 12.3552 30.0683 13.5626 32.2558 15.7524C33.3347 16.8269 34.1899 18.1047 34.7718 19.5118C35.3537 20.9189 35.6508 22.4275 35.646 23.9502C35.6436 30.3391 30.4458 35.5382 24.0592 35.5382ZM33.9204 14.089C32.6288 12.7888 31.092 11.7579 29.399 11.056C27.7061 10.3542 25.8907 9.99522 24.058 10C16.3749 10 10.1196 16.2542 10.1172 23.9408C10.1161 26.3979 10.7573 28.7964 11.9776 30.91L10 38.1348L17.3901 36.1958C19.4344 37.3096 21.7253 37.8933 24.0533 37.8933H24.0592C31.7423 37.8933 37.9976 31.6392 37.9999 23.9514C38.0056 22.1194 37.648 20.3045 36.9477 18.6117C36.2475 16.9188 35.2185 15.3816 33.9204 14.089Z" fill="#F3F4F6" fill-opacity="0.7"/>
</g>
</g>
</svg>
