<svg width="48" height="48" viewBox="0 0 48 48" fill="none" xmlns="http://www.w3.org/2000/svg">
<g id="Dribble">
<g id="Group">
<path id="Vector" d="M37.7101 15.5756C36.7279 16.0109 35.6727 16.305 34.5634 16.4379C35.708 15.753 36.5643 14.6751 36.9726 13.4053C35.8972 14.044 34.7203 14.4936 33.4929 14.7345C32.6676 13.8533 31.5744 13.2692 30.3831 13.0729C29.1917 12.8766 27.9689 13.0792 26.9045 13.6491C25.8401 14.219 24.9936 15.1243 24.4964 16.2246C23.9993 17.3249 23.8793 18.5586 24.1551 19.734C21.9761 19.6246 19.8445 19.0583 17.8986 18.0717C15.9527 17.0852 14.2359 15.7005 12.8598 14.0076C12.3893 14.8192 12.1187 15.7603 12.1187 16.7626C12.1182 17.6648 12.3404 18.5533 12.7656 19.349C13.1907 20.1448 13.8058 20.8234 14.5561 21.3244C13.6859 21.2968 12.835 21.0616 12.074 20.6386V20.7092C12.0739 21.9747 12.5116 23.2012 13.3129 24.1806C14.1142 25.1601 15.2296 25.8321 16.47 26.0828C15.6628 26.3012 14.8165 26.3334 13.995 26.1769C14.3449 27.2657 15.0266 28.2179 15.9446 28.9C16.8626 29.5822 17.9709 29.9602 19.1144 29.9812C17.1733 31.505 14.7759 32.3316 12.3081 32.328C11.8709 32.3281 11.4342 32.3026 11 32.2515C13.505 33.8622 16.421 34.7169 19.3991 34.7136C29.4804 34.7136 34.9916 26.3639 34.9916 19.1223C34.9916 18.8871 34.9857 18.6494 34.9751 18.4142C36.0471 17.6389 36.9725 16.6789 37.7078 15.5792L37.7101 15.5756Z" fill="#F3F4F6" fill-opacity="0.7"/>
</g>
</g>
</svg>
