<svg width="48" height="48" viewBox="0 0 48 48" fill="none" xmlns="http://www.w3.org/2000/svg">
<g id="Mail">
<g id="Group">
<path id="Vector" fill-rule="evenodd" clip-rule="evenodd" d="M24 10C16.2708 10 10 16.2708 10 24C10 31.7292 16.2708 38 24 38C31.714 38 38 31.7292 38 24C38 16.2708 31.714 10 24 10ZM33.247 16.4528C34.9707 18.5521 35.9246 21.1777 35.9502 23.8938C35.5558 23.818 31.6078 23.013 27.6295 23.5147C27.5373 23.3163 27.4615 23.104 27.3705 22.8917C27.1231 22.3076 26.8601 21.7303 26.5818 21.1603C30.9848 19.3683 32.9892 16.7877 33.247 16.4528ZM24 12.0662C27.0368 12.0662 29.8158 13.2037 31.9263 15.0715C31.714 15.3748 29.9068 17.7898 25.6555 19.3835C23.6955 15.7855 21.5255 12.8385 21.1907 12.3835C22.1115 12.1685 23.0544 12.0616 24 12.065V12.0662ZM18.9133 13.1885C19.2318 13.6143 21.3575 16.5753 23.3467 20.0975C17.7583 21.5862 12.8233 21.5558 12.2925 21.5558C13.0672 17.8505 15.5732 14.7682 18.9133 13.1885ZM12.0347 24.0152V23.6512C12.5515 23.6663 18.351 23.7422 24.3197 21.9502C24.6685 22.6187 24.987 23.3012 25.2903 23.9848C25.1387 24.0303 24.9718 24.0758 24.8202 24.1213C18.6555 26.1105 15.3748 31.546 15.1018 32.0022C13.1271 29.8106 12.0344 26.9651 12.0347 24.0152ZM24 35.9653C21.2362 35.9653 18.6858 35.0238 16.6663 33.4453C16.8787 33.0043 19.3077 28.3272 26.0498 25.974C26.0802 25.9588 26.0965 25.9588 26.1257 25.9437C27.8115 30.3012 28.494 33.961 28.6772 35.0087C27.234 35.6317 25.6555 35.9653 24 35.9653ZM30.6663 33.9155C30.545 33.1863 29.9068 29.6945 28.3423 25.3965C32.0932 24.805 35.3727 25.7768 35.7833 25.9133C35.2665 29.2383 33.3532 32.1083 30.6663 33.9155Z" fill="#F3F4F6" fill-opacity="0.7"/>
</g>
</g>
</svg>
